<svg xmlns="http://www.w3.org/2000/svg" xmlns:xlink="http://www.w3.org/1999/xlink" width="150" zoomAndPan="magnify" viewBox="0 0 112.5 112.499997" height="150" preserveAspectRatio="xMidYMid meet" version="1.0"><defs><clipPath id="573a13ac4e"><path d="M 42.636719 80.921875 L 69.519531 80.921875 L 69.519531 99.589844 L 42.636719 99.589844 Z M 42.636719 80.921875 " clip-rule="nonzero"/></clipPath><clipPath id="b5308bd417"><path d="M 30 12.304688 L 81.996094 12.304688 L 81.996094 89.960938 L 30 89.960938 Z M 30 12.304688 " clip-rule="nonzero"/></clipPath><clipPath id="3422c3fcb7"><path d="M 48.527344 45.558594 L 53.007812 45.558594 L 53.007812 48.546875 L 48.527344 48.546875 Z M 48.527344 45.558594 " clip-rule="nonzero"/></clipPath><clipPath id="6c2c88b5c9"><path d="M 47.6875 38.113281 L 53.660156 38.113281 L 53.660156 47 L 47.6875 47 Z M 47.6875 38.113281 " clip-rule="nonzero"/></clipPath><clipPath id="46c185a681"><path d="M 60.230469 39.457031 L 64.710938 39.457031 L 64.710938 42.441406 L 60.230469 42.441406 Z M 60.230469 39.457031 " clip-rule="nonzero"/></clipPath><clipPath id="40e44f4a10"><path d="M 59.386719 32.105469 L 65.359375 32.105469 L 65.359375 41 L 59.386719 41 Z M 59.386719 32.105469 " clip-rule="nonzero"/></clipPath><clipPath id="9f74354cf0"><path d="M 51.628906 34.9375 L 56.109375 34.9375 L 56.109375 37.925781 L 51.628906 37.925781 Z M 51.628906 34.9375 " clip-rule="nonzero"/></clipPath><clipPath id="b9c7c42227"><path d="M 50.789062 27.589844 L 56.761719 27.589844 L 56.761719 36.546875 L 50.789062 36.546875 Z M 50.789062 27.589844 " clip-rule="nonzero"/></clipPath></defs><g clip-path="url(#573a13ac4e)"><path fill="#ffde59" d="M 69.355469 90.308594 C 69.355469 90.925781 69.269531 91.535156 69.097656 92.136719 C 68.929688 92.742188 68.675781 93.328125 68.339844 93.898438 C 68.003906 94.464844 67.589844 95.007812 67.105469 95.519531 C 66.617188 96.03125 66.0625 96.503906 65.441406 96.9375 C 64.824219 97.375 64.148438 97.761719 63.417969 98.105469 C 62.691406 98.449219 61.917969 98.738281 61.109375 98.972656 C 60.300781 99.207031 59.464844 99.386719 58.601562 99.507812 C 57.742188 99.625 56.875 99.6875 55.996094 99.6875 C 55.121094 99.6875 54.25 99.625 53.390625 99.507812 C 52.53125 99.386719 51.695312 99.207031 50.886719 98.972656 C 50.074219 98.738281 49.304688 98.449219 48.574219 98.105469 C 47.847656 97.761719 47.171875 97.375 46.550781 96.9375 C 45.929688 96.503906 45.378906 96.03125 44.890625 95.519531 C 44.402344 95.007812 43.992188 94.464844 43.65625 93.898438 C 43.320312 93.328125 43.066406 92.742188 42.894531 92.136719 C 42.722656 91.535156 42.636719 90.925781 42.636719 90.308594 C 42.636719 89.691406 42.722656 89.082031 42.894531 88.480469 C 43.066406 87.875 43.320312 87.289062 43.65625 86.71875 C 43.992188 86.152344 44.402344 85.609375 44.890625 85.097656 C 45.378906 84.585938 45.929688 84.113281 46.550781 83.675781 C 47.171875 83.242188 47.847656 82.851562 48.574219 82.511719 C 49.304688 82.167969 50.074219 81.878906 50.886719 81.644531 C 51.695312 81.410156 52.53125 81.230469 53.390625 81.109375 C 54.25 80.992188 55.121094 80.929688 55.996094 80.929688 C 56.875 80.929688 57.742188 80.992188 58.601562 81.109375 C 59.464844 81.230469 60.300781 81.410156 61.109375 81.644531 C 61.917969 81.878906 62.691406 82.167969 63.417969 82.511719 C 64.148438 82.851562 64.824219 83.242188 65.441406 83.675781 C 66.0625 84.113281 66.617188 84.585938 67.105469 85.097656 C 67.589844 85.609375 68.003906 86.152344 68.339844 86.71875 C 68.675781 87.289062 68.929688 87.875 69.097656 88.480469 C 69.269531 89.082031 69.355469 89.691406 69.355469 90.308594 Z M 69.355469 90.308594 " fill-opacity="1" fill-rule="nonzero"/></g><g clip-path="url(#b5308bd417)"><path fill="#418af7" d="M 56 12.304688 C 41.664062 12.304688 30 23.964844 30 38.304688 C 30 52.09375 53.632812 88.046875 54.644531 89.566406 C 54.945312 90.019531 55.453125 90.296875 56 90.296875 C 56.546875 90.296875 57.050781 90.019531 57.355469 89.566406 C 58.363281 88.046875 81.996094 52.09375 81.996094 38.304688 C 81.996094 23.964844 70.332031 12.304688 56 12.304688 " fill-opacity="1" fill-rule="nonzero"/></g><path fill="#ffffff" d="M 56 49.675781 C 49.726562 49.675781 44.625 44.574219 44.625 38.304688 C 44.625 32.03125 49.726562 26.929688 56 26.929688 C 62.269531 26.929688 67.375 32.03125 67.375 38.304688 C 67.375 44.574219 62.269531 49.675781 56 49.675781 " fill-opacity="1" fill-rule="nonzero"/><g clip-path="url(#3422c3fcb7)"><path fill="#ffde59" d="M 53.039062 47.140625 C 53.039062 47.351562 52.980469 47.550781 52.867188 47.746094 C 52.753906 47.941406 52.589844 48.109375 52.378906 48.257812 C 52.167969 48.40625 51.925781 48.523438 51.648438 48.601562 C 51.371094 48.683594 51.085938 48.722656 50.785156 48.722656 C 50.488281 48.722656 50.199219 48.683594 49.925781 48.601562 C 49.648438 48.523438 49.40625 48.40625 49.195312 48.257812 C 48.984375 48.109375 48.820312 47.941406 48.707031 47.746094 C 48.59375 47.550781 48.535156 47.351562 48.535156 47.140625 C 48.535156 46.933594 48.59375 46.730469 48.707031 46.535156 C 48.820312 46.34375 48.984375 46.171875 49.195312 46.023438 C 49.40625 45.875 49.648438 45.761719 49.925781 45.679688 C 50.199219 45.601562 50.488281 45.558594 50.785156 45.558594 C 51.085938 45.558594 51.371094 45.601562 51.648438 45.679688 C 51.925781 45.761719 52.167969 45.875 52.378906 46.023438 C 52.589844 46.171875 52.753906 46.34375 52.867188 46.535156 C 52.980469 46.730469 53.039062 46.933594 53.039062 47.140625 Z M 53.039062 47.140625 " fill-opacity="1" fill-rule="nonzero"/></g><g clip-path="url(#6c2c88b5c9)"><path fill="#ff5757" d="M 50.785156 38.117188 C 52.496094 38.117188 53.882812 39.503906 53.882812 41.214844 C 53.882812 41.808594 53.714844 42.363281 53.421875 42.835938 C 53.074219 43.414062 52.726562 43.992188 52.375 44.570312 C 51.949219 45.261719 51.605469 45.820312 51.183594 46.511719 C 50.808594 47.121094 50.78125 47.136719 50.40625 46.523438 C 49.980469 45.835938 49.625 45.257812 49.203125 44.570312 C 48.855469 44 48.507812 43.429688 48.160156 42.855469 C 47.859375 42.378906 47.6875 41.816406 47.6875 41.214844 C 47.6875 39.503906 49.074219 38.117188 50.785156 38.117188 Z M 50.785156 39.667969 C 51.550781 39.667969 52.171875 40.289062 52.171875 41.058594 C 52.171875 41.824219 51.550781 42.445312 50.785156 42.445312 C 50.019531 42.445312 49.394531 41.824219 49.394531 41.058594 C 49.394531 40.289062 50.019531 39.667969 50.785156 39.667969 Z M 50.785156 39.667969 " fill-opacity="1" fill-rule="evenodd"/></g><g clip-path="url(#46c185a681)"><path fill="#ffde59" d="M 64.738281 41.039062 C 64.738281 41.246094 64.679688 41.449219 64.566406 41.640625 C 64.453125 41.835938 64.289062 42.007812 64.078125 42.15625 C 63.867188 42.304688 63.625 42.417969 63.347656 42.496094 C 63.074219 42.578125 62.785156 42.617188 62.488281 42.617188 C 62.1875 42.617188 61.902344 42.578125 61.625 42.496094 C 61.347656 42.417969 61.105469 42.304688 60.894531 42.15625 C 60.683594 42.007812 60.519531 41.835938 60.40625 41.640625 C 60.292969 41.449219 60.234375 41.246094 60.234375 41.039062 C 60.234375 40.828125 60.292969 40.625 60.40625 40.433594 C 60.519531 40.238281 60.683594 40.066406 60.894531 39.917969 C 61.105469 39.769531 61.347656 39.65625 61.625 39.578125 C 61.902344 39.496094 62.1875 39.457031 62.488281 39.457031 C 62.785156 39.457031 63.074219 39.496094 63.347656 39.578125 C 63.625 39.65625 63.867188 39.769531 64.078125 39.917969 C 64.289062 40.066406 64.453125 40.238281 64.566406 40.433594 C 64.679688 40.625 64.738281 40.828125 64.738281 41.039062 Z M 64.738281 41.039062 " fill-opacity="1" fill-rule="nonzero"/></g><g clip-path="url(#40e44f4a10)"><path fill="#5271ff" d="M 62.484375 32.109375 C 64.195312 32.109375 65.582031 33.496094 65.582031 35.207031 C 65.582031 35.800781 65.414062 36.359375 65.125 36.832031 C 64.773438 37.410156 64.425781 37.988281 64.074219 38.566406 C 63.652344 39.257812 63.304688 39.816406 62.882812 40.507812 C 62.507812 41.117188 62.480469 41.132812 62.105469 40.519531 C 61.679688 39.832031 61.324219 39.253906 60.902344 38.566406 C 60.554688 37.992188 60.207031 37.421875 59.859375 36.851562 C 59.558594 36.375 59.386719 35.8125 59.386719 35.207031 C 59.386719 33.496094 60.773438 32.109375 62.484375 32.109375 Z M 62.484375 33.664062 C 63.25 33.664062 63.875 34.285156 63.875 35.050781 C 63.875 35.820312 63.25 36.441406 62.484375 36.441406 C 61.71875 36.441406 61.097656 35.820312 61.097656 35.050781 C 61.097656 34.285156 61.71875 33.664062 62.484375 33.664062 Z M 62.484375 33.664062 " fill-opacity="1" fill-rule="evenodd"/></g><path fill="#ffde59" d="M 50.949219 46.644531 C 51.039062 46.597656 51.136719 46.589844 51.234375 46.621094 C 51.332031 46.652344 51.40625 46.714844 51.453125 46.804688 C 51.5 46.898438 51.507812 46.992188 51.476562 47.089844 C 51.441406 47.1875 51.382812 47.261719 51.289062 47.308594 C 51.199219 47.355469 51.101562 47.363281 51.003906 47.332031 C 50.90625 47.300781 50.835938 47.238281 50.785156 47.144531 C 50.738281 47.054688 50.730469 46.960938 50.765625 46.859375 C 50.796875 46.761719 50.855469 46.691406 50.949219 46.644531 Z M 52.277344 45.960938 C 52.367188 45.914062 52.464844 45.90625 52.5625 45.9375 C 52.660156 45.96875 52.734375 46.03125 52.78125 46.121094 C 52.828125 46.214844 52.835938 46.308594 52.804688 46.40625 C 52.773438 46.507812 52.710938 46.578125 52.617188 46.625 C 52.527344 46.671875 52.433594 46.679688 52.332031 46.648438 C 52.234375 46.617188 52.164062 46.554688 52.117188 46.464844 C 52.070312 46.371094 52.0625 46.277344 52.09375 46.179688 C 52.125 46.082031 52.1875 46.007812 52.277344 45.960938 Z M 53.605469 45.28125 C 53.699219 45.230469 53.792969 45.222656 53.890625 45.257812 C 53.988281 45.289062 54.0625 45.347656 54.109375 45.441406 C 54.15625 45.53125 54.164062 45.628906 54.132812 45.726562 C 54.101562 45.824219 54.039062 45.898438 53.945312 45.945312 C 53.855469 45.992188 53.761719 46 53.664062 45.96875 C 53.5625 45.933594 53.492188 45.875 53.445312 45.78125 C 53.398438 45.691406 53.390625 45.59375 53.421875 45.496094 C 53.453125 45.398438 53.515625 45.328125 53.605469 45.28125 Z M 54.933594 44.597656 C 55.027344 44.550781 55.121094 44.542969 55.21875 44.574219 C 55.316406 44.605469 55.390625 44.667969 55.4375 44.757812 C 55.484375 44.851562 55.492188 44.945312 55.460938 45.042969 C 55.429688 45.140625 55.367188 45.214844 55.277344 45.261719 C 55.183594 45.308594 55.089844 45.316406 54.992188 45.285156 C 54.894531 45.253906 54.820312 45.191406 54.773438 45.101562 C 54.726562 45.007812 54.71875 44.914062 54.75 44.816406 C 54.78125 44.71875 54.84375 44.644531 54.933594 44.597656 Z M 56.261719 43.914062 C 56.355469 43.867188 56.449219 43.859375 56.546875 43.890625 C 56.644531 43.921875 56.71875 43.984375 56.765625 44.078125 C 56.8125 44.167969 56.820312 44.261719 56.789062 44.363281 C 56.757812 44.460938 56.695312 44.53125 56.605469 44.578125 C 56.511719 44.625 56.417969 44.632812 56.320312 44.601562 C 56.222656 44.570312 56.148438 44.507812 56.101562 44.417969 C 56.054688 44.328125 56.046875 44.230469 56.078125 44.132812 C 56.109375 44.035156 56.171875 43.960938 56.261719 43.914062 Z M 57.589844 43.234375 L 57.59375 43.234375 C 57.683594 43.1875 57.777344 43.179688 57.875 43.210938 C 57.976562 43.242188 58.046875 43.304688 58.09375 43.394531 C 58.140625 43.488281 58.148438 43.582031 58.117188 43.679688 C 58.085938 43.777344 58.023438 43.851562 57.933594 43.898438 C 57.839844 43.945312 57.746094 43.953125 57.648438 43.921875 C 57.550781 43.890625 57.476562 43.828125 57.429688 43.734375 C 57.382812 43.644531 57.375 43.550781 57.40625 43.449219 C 57.4375 43.351562 57.5 43.28125 57.589844 43.234375 Z M 58.921875 42.550781 C 59.011719 42.503906 59.105469 42.496094 59.207031 42.527344 C 59.304688 42.558594 59.375 42.621094 59.421875 42.710938 C 59.46875 42.804688 59.476562 42.898438 59.445312 42.996094 C 59.414062 43.097656 59.351562 43.167969 59.261719 43.214844 C 59.167969 43.261719 59.074219 43.269531 58.976562 43.238281 C 58.878906 43.207031 58.804688 43.144531 58.757812 43.054688 C 58.710938 42.960938 58.703125 42.867188 58.734375 42.769531 C 58.765625 42.671875 58.828125 42.597656 58.921875 42.550781 Z M 60.25 41.871094 C 60.339844 41.820312 60.4375 41.8125 60.535156 41.847656 C 60.632812 41.878906 60.703125 41.9375 60.75 42.03125 C 60.796875 42.121094 60.804688 42.21875 60.773438 42.316406 C 60.742188 42.414062 60.683594 42.488281 60.589844 42.535156 C 60.5 42.582031 60.402344 42.589844 60.304688 42.558594 C 60.207031 42.523438 60.132812 42.464844 60.085938 42.371094 C 60.039062 42.28125 60.03125 42.183594 60.0625 42.085938 C 60.09375 41.988281 60.15625 41.917969 60.25 41.871094 Z M 61.578125 41.1875 C 61.667969 41.140625 61.765625 41.132812 61.863281 41.164062 C 61.960938 41.195312 62.03125 41.257812 62.082031 41.347656 C 62.128906 41.441406 62.136719 41.535156 62.105469 41.632812 C 62.070312 41.730469 62.011719 41.804688 61.917969 41.851562 C 61.828125 41.898438 61.730469 41.90625 61.632812 41.875 C 61.535156 41.84375 61.464844 41.78125 61.414062 41.691406 C 61.367188 41.597656 61.359375 41.503906 61.394531 41.40625 C 61.425781 41.308594 61.484375 41.234375 61.578125 41.1875 Z M 61.578125 41.1875 " fill-opacity="1" fill-rule="nonzero"/><path fill="#ffde59" d="M 54.390625 36.46875 C 54.484375 36.515625 54.542969 36.589844 54.574219 36.6875 C 54.605469 36.785156 54.597656 36.878906 54.546875 36.972656 C 54.5 37.0625 54.425781 37.125 54.328125 37.15625 C 54.230469 37.183594 54.136719 37.175781 54.042969 37.128906 C 53.953125 37.082031 53.890625 37.007812 53.859375 36.910156 C 53.832031 36.8125 53.839844 36.714844 53.886719 36.625 C 53.933594 36.535156 54.007812 36.472656 54.105469 36.441406 C 54.203125 36.410156 54.300781 36.421875 54.390625 36.46875 Z M 55.714844 37.164062 C 55.804688 37.210938 55.867188 37.285156 55.894531 37.382812 C 55.925781 37.480469 55.917969 37.574219 55.871094 37.667969 C 55.820312 37.757812 55.75 37.820312 55.652344 37.847656 C 55.550781 37.878906 55.457031 37.871094 55.367188 37.824219 C 55.273438 37.777344 55.214844 37.703125 55.183594 37.605469 C 55.152344 37.503906 55.160156 37.410156 55.210938 37.320312 C 55.257812 37.226562 55.332031 37.167969 55.429688 37.136719 C 55.527344 37.105469 55.621094 37.113281 55.714844 37.164062 Z M 57.035156 37.855469 C 57.125 37.90625 57.1875 37.976562 57.21875 38.078125 C 57.25 38.175781 57.242188 38.269531 57.191406 38.359375 C 57.144531 38.453125 57.070312 38.511719 56.972656 38.542969 C 56.875 38.574219 56.78125 38.566406 56.6875 38.519531 C 56.597656 38.46875 56.535156 38.398438 56.503906 38.296875 C 56.476562 38.199219 56.484375 38.105469 56.53125 38.015625 C 56.578125 37.921875 56.652344 37.863281 56.75 37.832031 C 56.847656 37.800781 56.945312 37.808594 57.035156 37.855469 Z M 58.359375 38.550781 C 58.449219 38.597656 58.511719 38.671875 58.539062 38.769531 C 58.570312 38.871094 58.5625 38.964844 58.515625 39.054688 C 58.464844 39.148438 58.394531 39.207031 58.292969 39.238281 C 58.195312 39.269531 58.101562 39.261719 58.011719 39.210938 C 57.917969 39.164062 57.859375 39.089844 57.828125 38.992188 C 57.796875 38.894531 57.804688 38.800781 57.851562 38.707031 C 57.902344 38.617188 57.972656 38.554688 58.074219 38.527344 C 58.171875 38.496094 58.265625 38.503906 58.359375 38.550781 Z M 59.679688 39.246094 C 59.769531 39.292969 59.832031 39.367188 59.863281 39.464844 C 59.894531 39.5625 59.882812 39.660156 59.835938 39.75 C 59.789062 39.839844 59.714844 39.902344 59.617188 39.933594 C 59.519531 39.964844 59.421875 39.953125 59.332031 39.90625 C 59.242188 39.859375 59.179688 39.785156 59.148438 39.6875 C 59.117188 39.589844 59.128906 39.496094 59.175781 39.402344 C 59.222656 39.3125 59.296875 39.25 59.394531 39.21875 C 59.492188 39.1875 59.589844 39.199219 59.679688 39.246094 Z M 61 39.941406 C 61.09375 39.988281 61.152344 40.0625 61.183594 40.160156 C 61.214844 40.257812 61.207031 40.351562 61.160156 40.445312 C 61.109375 40.535156 61.039062 40.597656 60.9375 40.628906 C 60.839844 40.65625 60.746094 40.648438 60.65625 40.601562 C 60.5625 40.554688 60.503906 40.480469 60.472656 40.382812 C 60.441406 40.285156 60.449219 40.1875 60.496094 40.097656 C 60.546875 40.007812 60.617188 39.945312 60.71875 39.914062 C 60.816406 39.882812 60.910156 39.894531 61 39.941406 Z M 62.324219 40.636719 C 62.414062 40.683594 62.476562 40.757812 62.507812 40.855469 C 62.539062 40.953125 62.527344 41.046875 62.480469 41.140625 C 62.433594 41.230469 62.359375 41.292969 62.261719 41.320312 C 62.164062 41.351562 62.066406 41.34375 61.976562 41.296875 C 61.886719 41.25 61.824219 41.175781 61.792969 41.078125 C 61.761719 40.976562 61.773438 40.882812 61.820312 40.792969 C 61.867188 40.699219 61.941406 40.640625 62.039062 40.609375 C 62.136719 40.578125 62.234375 40.585938 62.324219 40.636719 Z M 62.324219 40.636719 " fill-opacity="1" fill-rule="nonzero"/><g clip-path="url(#9f74354cf0)"><path fill="#ffde59" d="M 56.140625 36.519531 C 56.140625 36.730469 56.082031 36.929688 55.96875 37.125 C 55.851562 37.320312 55.691406 37.488281 55.480469 37.636719 C 55.269531 37.785156 55.023438 37.898438 54.75 37.980469 C 54.472656 38.0625 54.183594 38.101562 53.886719 38.101562 C 53.589844 38.101562 53.300781 38.0625 53.023438 37.980469 C 52.75 37.898438 52.503906 37.785156 52.292969 37.636719 C 52.082031 37.488281 51.921875 37.320312 51.804688 37.125 C 51.691406 36.929688 51.636719 36.730469 51.636719 36.519531 C 51.636719 36.308594 51.691406 36.109375 51.804688 35.914062 C 51.921875 35.722656 52.082031 35.550781 52.292969 35.402344 C 52.503906 35.253906 52.75 35.140625 53.023438 35.058594 C 53.300781 34.980469 53.589844 34.9375 53.886719 34.9375 C 54.183594 34.9375 54.472656 34.980469 54.75 35.058594 C 55.023438 35.140625 55.269531 35.253906 55.480469 35.402344 C 55.691406 35.550781 55.851562 35.722656 55.96875 35.914062 C 56.082031 36.109375 56.140625 36.308594 56.140625 36.519531 Z M 56.140625 36.519531 " fill-opacity="1" fill-rule="nonzero"/></g><g clip-path="url(#b9c7c42227)"><path fill="#7ed957" d="M 53.886719 27.59375 C 55.59375 27.59375 56.984375 28.980469 56.984375 30.691406 C 56.984375 31.285156 56.816406 31.839844 56.523438 32.3125 C 56.175781 32.890625 55.824219 33.46875 55.476562 34.046875 C 55.050781 34.738281 54.707031 35.296875 54.28125 35.988281 C 53.90625 36.597656 53.882812 36.613281 53.503906 36 C 53.082031 35.3125 52.726562 34.734375 52.304688 34.046875 C 51.953125 33.476562 51.605469 32.90625 51.257812 32.332031 C 50.960938 31.855469 50.789062 31.292969 50.789062 30.691406 C 50.789062 28.980469 52.175781 27.59375 53.886719 27.59375 Z M 53.886719 29.144531 C 54.652344 29.144531 55.273438 29.765625 55.273438 30.535156 C 55.273438 31.300781 54.652344 31.921875 53.886719 31.921875 C 53.117188 31.921875 52.496094 31.300781 52.496094 30.535156 C 52.496094 29.765625 53.117188 29.144531 53.886719 29.144531 Z M 53.886719 29.144531 " fill-opacity="1" fill-rule="evenodd"/></g></svg>