<svg xmlns="http://www.w3.org/2000/svg" fill="none" viewBox="-5 -5 140 140" height="140" width="140" id="User-Circle-Single--Streamline-Core.svg"><desc>User Circle Single Streamline Icon: https://streamlinehq.com</desc><g id="user-circle-single--circle-geometric-human-person-single-user"><path id="Vector" stroke="#57636c" stroke-linecap="round" stroke-linejoin="round" d="M65 74.28571428571429c12.820878571428574 0 23.214285714285715 -10.393407142857143 23.214285714285715 -23.214285714285715S77.82087857142858 27.85714285714286 65 27.85714285714286 41.78571428571429 38.250550000000004 41.78571428571429 51.07142857142858 52.179121428571435 74.28571428571429 65 74.28571428571429Z" stroke-width="10"></path><path id="Vector_2" stroke="#57636c" stroke-linecap="round" stroke-linejoin="round" d="M25.349814285714288 110.50000000000001c4.143657142857143 -6.801785714285716 9.967378571428572 -12.423357142857144 16.911235714285716 -16.323357142857144 6.943857142857143 -3.9011142857142858 14.774314285714288 -5.949914285714287 22.738764285714286 -5.949914285714287 7.96445 0 15.794907142857145 2.0488000000000004 22.738764285714286 5.949914285714287 6.944135714285715 3.9000000000000004 12.767207142857144 9.52157142857143 16.91142142857143 16.323357142857144" stroke-width="10"></path><path id="Vector_3" stroke="#57636c" stroke-linecap="round" stroke-linejoin="round" d="M65 125.35714285714286c33.334785714285715 0 60.35714285714286 -27.022357142857143 60.35714285714286 -60.35714285714286C125.35714285714286 31.665678571428572 98.33478571428573 4.642857142857143 65 4.642857142857143 31.665678571428572 4.642857142857143 4.642857142857143 31.665678571428572 4.642857142857143 65c0 33.334785714285715 27.02282142857143 60.35714285714286 60.35714285714286 60.35714285714286Z" stroke-width="10"></path></g></svg>