<svg xmlns="http://www.w3.org/2000/svg" fill="none" viewBox="-0.7 -0.7 14 14" height="14" width="14" style="background-color: #000000ff" id="User-Multiple-Circle--Streamline-Core.svg"><desc>User Multiple Circle Streamline Icon: https://streamlinehq.com</desc><g id="user-multiple-circle--close-geometric-human-multiple-person-up-user-circle"><path id="Vector" stroke="#ffffff" stroke-linecap="round" stroke-linejoin="round" d="M9.394200000000001 7.199937c-0.8002710000000001 0 -1.449045 -0.648774 -1.449045 -1.449063 0 -0.8002980000000001 0.648774 -1.449063 1.449045 -1.449063 0.80028 0 1.4490900000000002 0.648765 1.4490900000000002 1.449063 0 0.8002889999999999 -0.64881 1.449063 -1.4490900000000002 1.449063Z" stroke-width="1"></path><path id="Vector_2" stroke="#ffffff" stroke-linecap="round" stroke-linejoin="round" d="M7.2889740000000005 9.436589999999999c0.19961099999999998 -0.21096 0.430596 -0.39159 0.685827 -0.534996 0.433449 -0.243477 0.922239 -0.371367 1.419399 -0.371367s0.98595 0.12789 1.41939 0.371367c0.18747000000000003 0.10533600000000001 0.36189000000000004 0.23070600000000002 0.5203800000000001 0.37353600000000003" stroke-width="1"></path><path id="Vector_3" stroke="#ffffff" stroke-linecap="round" stroke-linejoin="round" d="M4.706046 6.734952c-0.9917100000000001 0 -1.795662 -0.803952 -1.795662 -1.795662 0 -0.991719 0.803952 -1.795662 1.795662 -1.795662 0.991719 0 1.795662 0.8039430000000001 1.795662 1.795662 0 0.9917100000000001 -0.8039430000000001 1.795662 -1.795662 1.795662Z" stroke-width="1"></path><path id="Vector_4" stroke="#ffffff" stroke-linecap="round" stroke-linejoin="round" d="M8.069895 11.862990000000002c-0.089559 -1.07253 -0.35681399999999996 -1.77777 -0.5033430000000001 -2.02608 -0.311958 -0.53037 -0.750393 -0.9687690000000001 -1.2731670000000002 -1.2729510000000002C5.77062 8.259768 5.181093000000001 8.1 4.581486 8.1c-0.599607 0 -1.189125 0.15976800000000002 -1.711899 0.463959 -0.417429 0.24289200000000002 -0.781092 0.571311 -1.069533 0.9638910000000002l-0.182862 0.27369" stroke-width="1"></path><path id="Vector_5" stroke="#ffffff" stroke-linecap="round" stroke-linejoin="round" d="M6.3 12.15C3.0691349999999997 12.15 0.45 9.53091 0.45 6.3 0.45 3.0691349999999997 3.0691349999999997 0.45 6.3 0.45c3.23091 0 5.8500000000000005 2.619135 5.8500000000000005 5.8500000000000005 0 3.23091 -2.61909 5.8500000000000005 -5.8500000000000005 5.8500000000000005Z" stroke-width="1"></path></g></svg>